<?xml version="1.0" encoding="UTF-8"?>
<svg id="_레이어_1" data-name="레이어_1" xmlns="http://www.w3.org/2000/svg" version="1.1" viewBox="0 0 110 135">
  <!-- Generator: Adobe Illustrator 29.6.1, SVG Export Plug-In . SVG Version: 2.1.1 Build 9)  -->
  <path d="M55.59,89.44l28-12c.55-.24.91-.78.91-1.38v-31.99h0v-.02c0-.11-.02-.22-.04-.33-.01-.03-.02-.07-.03-.1-.02-.08-.05-.15-.09-.22-.02-.03-.03-.06-.05-.1-.04-.08-.09-.15-.15-.21-.02-.02-.03-.04-.05-.06-.08-.08-.16-.16-.26-.22h-.01s-.04-.03-.06-.04c-.06-.03-.11-.07-.18-.1l-28-12c-.38-.16-.8-.16-1.18,0l-28,12c-.06.03-.12.06-.18.1-.02.01-.04.02-.06.03h-.01c-.1.07-.18.15-.26.23-.02.02-.03.04-.04.06-.06.07-.11.14-.15.21-.02.03-.03.06-.05.1-.03.07-.06.15-.09.22-.01.03-.02.06-.03.1-.02.11-.04.22-.04.33h0v32.01c0,.6.36,1.14.91,1.38l28,12s.08.02.11.04c.03.01.06.02.1.03.13.03.25.06.38.06s.26-.02.38-.06c.03-.01.06-.02.1-.03.05-.02.08-.02.12-.04h0ZM81.5,75.07l-25,10.71v-28.73l25-10.71v28.73ZM55,33.69l24.19,10.37-24.19,10.37-24.19-10.37,24.19-10.37ZM28.5,46.34l25,10.71v28.74l-25-10.71v-28.74ZM78.45,29.44c.31-.77,1.18-1.14,1.95-.84l3.71,1.49c.77.31,1.14,1.18.84,1.95-.23.59-.8.94-1.39.94-.19,0-.37-.03-.56-.11l-3.71-1.49c-.77-.3-1.15-1.17-.84-1.94h0ZM18.4,85.42c-.23.59-.8.94-1.39.94-.19,0-.37-.03-.56-.11l-2.01-.8c-.57-.23-.94-.78-.94-1.39v-1.84c0-.83.67-1.5,1.5-1.5s1.5.67,1.5,1.5v.82l1.06.43c.77.31,1.16,1.18.84,1.95h0ZM13.5,62.22v-4c0-.83.67-1.5,1.5-1.5s1.5.67,1.5,1.5v4c0,.83-.67,1.5-1.5,1.5s-1.5-.67-1.5-1.5ZM22.74,32.96c-.31-.77.07-1.64.84-1.95l3.71-1.49c.77-.31,1.64.07,1.95.84.31.77-.07,1.64-.84,1.95l-3.71,1.49c-.18.07-.37.11-.56.11-.59,0-1.15-.36-1.39-.95ZM56.17,20.53c.31-.77,1.18-1.14,1.95-.84l3.71,1.49c.77.31,1.14,1.18.84,1.95-.23.59-.8.94-1.39.94-.19,0-.37-.03-.56-.11l-3.72-1.48c-.77-.31-1.14-1.18-.83-1.95h0ZM13.5,74.22v-4c0-.83.67-1.5,1.5-1.5s1.5.67,1.5,1.5v4c0,.83-.67,1.5-1.5,1.5s-1.5-.67-1.5-1.5ZM45.02,24.05c-.31-.77.07-1.64.84-1.95l3.71-1.49c.77-.31,1.64.07,1.95.84.31.77-.07,1.64-.84,1.95l-3.71,1.49c-.18.07-.37.11-.56.11-.59-.01-1.15-.36-1.39-.95h0ZM67.31,24.98c.31-.77,1.18-1.14,1.95-.84l3.71,1.49c.77.31,1.14,1.18.84,1.95-.23.59-.8.94-1.39.94-.19,0-.37-.03-.56-.11l-3.71-1.49c-.78-.29-1.15-1.17-.84-1.94h0ZM33.88,28.51c-.31-.77.07-1.64.84-1.95l3.71-1.49c.77-.31,1.64.07,1.95.84.31.77-.07,1.64-.84,1.95l-3.71,1.49c-.18.07-.37.11-.56.11-.59-.01-1.15-.37-1.39-.95ZM13.5,50.22v-4c0-.83.67-1.5,1.5-1.5s1.5.67,1.5,1.5v4c0,.83-.67,1.5-1.5,1.5s-1.5-.67-1.5-1.5ZM13.5,38.22v-2.16c0-.61.37-1.17.94-1.39l1.71-.68c.77-.31,1.64.07,1.95.84.31.77-.07,1.64-.84,1.95l-.76.31v1.15c0,.83-.67,1.5-1.5,1.5-.83,0-1.5-.68-1.5-1.52h0ZM96.5,72.06v4c0,.83-.67,1.5-1.5,1.5s-1.5-.67-1.5-1.5v-4c0-.83.67-1.5,1.5-1.5s1.5.67,1.5,1.5ZM96.5,60.06v4c0,.83-.67,1.5-1.5,1.5s-1.5-.67-1.5-1.5v-4c0-.83.67-1.5,1.5-1.5s1.5.67,1.5,1.5ZM85.25,87.96c.31.77-.07,1.64-.84,1.95l-3.71,1.49c-.18.07-.37.11-.56.11-.6,0-1.16-.36-1.39-.94-.31-.77.07-1.64.84-1.95l3.71-1.49c.77-.31,1.64.06,1.95.83ZM96.39,83.5c.31.77-.07,1.64-.84,1.95l-3.71,1.49c-.18.07-.37.11-.56.11-.6,0-1.16-.36-1.39-.94-.31-.77.07-1.64.84-1.95l3.71-1.49c.77-.31,1.65.06,1.95.83ZM96.5,36.06v4c0,.83-.67,1.5-1.5,1.5s-1.5-.67-1.5-1.5v-2.98l-3.07-1.23c-.77-.31-1.14-1.18-.84-1.95.3-.77,1.18-1.14,1.95-.84l3.71,1.49c.05.02.1.04.15.07.63.17,1.1.75,1.1,1.44h0ZM96.5,48.06v4c0,.83-.67,1.5-1.5,1.5s-1.5-.67-1.5-1.5v-4c0-.83.67-1.5,1.5-1.5s1.5.67,1.5,1.5ZM62.97,96.87c.31.77-.07,1.64-.84,1.95l-3.71,1.49c-.18.07-.37.11-.56.11-.6,0-1.16-.36-1.39-.94-.31-.77.07-1.64.84-1.95l3.71-1.49c.77-.31,1.64.06,1.95.83h0ZM51.83,98.79c-.23.59-.8.94-1.39.94-.19,0-.37-.03-.56-.11l-3.71-1.49c-.77-.31-1.14-1.18-.84-1.95.31-.77,1.18-1.15,1.95-.84l3.71,1.49c.77.32,1.14,1.19.84,1.96h0ZM74.11,92.42c.31.77-.07,1.64-.84,1.95l-3.71,1.49c-.18.07-.37.11-.56.11-.6,0-1.16-.36-1.39-.94-.31-.77.07-1.64.84-1.95l3.71-1.49c.77-.32,1.64.06,1.95.83h0ZM40.68,94.33c-.23.59-.8.94-1.39.94-.19,0-.37-.03-.56-.11l-3.71-1.49c-.77-.31-1.14-1.18-.84-1.95.31-.77,1.18-1.14,1.95-.84l3.71,1.49c.78.32,1.15,1.2.84,1.96h0ZM29.54,89.88c-.23.59-.8.94-1.39.94-.19,0-.37-.03-.56-.11l-3.71-1.49c-.77-.31-1.14-1.18-.84-1.95.31-.77,1.18-1.15,1.95-.84l3.71,1.49c.78.32,1.15,1.19.84,1.96Z"/>
</svg>